<svg width="275" height="76" viewBox="0 0 275 76" fill="none" xmlns="http://www.w3.org/2000/svg">
<g clip-path="url(#clip0_419_389)">
<path d="M272.628 53.2767C271.326 52.6193 269.706 53.0956 269.01 54.3357C268.832 54.6506 264.579 62.028 254.482 62.028C244.385 62.028 240.111 54.5955 239.913 54.2648C239.184 53.0405 237.552 52.6114 236.27 53.3043C234.984 54.0011 234.527 55.56 235.256 56.7922C235.491 57.1858 240.762 65.8742 252.013 67.0197V70.8856H249.335C247.855 70.8856 246.656 72.0312 246.656 73.4444C246.656 74.8577 247.855 76.0033 249.335 76.0033H260.05C261.529 76.0033 262.729 74.8577 262.729 73.4444C262.729 72.0312 261.529 70.8856 260.05 70.8856H257.371V66.9804C268.713 65.6931 273.543 57.1111 273.757 56.7174C274.437 55.4694 273.934 53.9341 272.632 53.2767H272.628Z" fill="url(#paint0_linear_419_389)"/>
<path d="M254.388 59.5687H254.58C262.782 59.5687 269.454 53.3459 269.454 45.6944V34.416C269.454 26.7646 262.782 20.5417 254.58 20.5417H254.388C246.185 20.5417 239.514 26.7646 239.514 34.416V45.6944C239.514 53.3459 246.185 59.5687 254.388 59.5687ZM254.388 25.1963H254.58C260.03 25.1963 264.464 29.3317 264.464 34.416V45.6944C264.464 50.7787 260.03 54.9141 254.58 54.9141H254.388C248.937 54.9141 244.504 50.7787 244.504 45.6944V41.7953H251.605C252.983 41.7953 254.1 40.7534 254.1 39.468C254.1 38.1826 252.983 37.1407 251.605 37.1407H244.504V35.372L251.655 35.2359C253.033 35.2108 254.127 34.1475 254.1 32.8621C254.073 31.5767 252.918 30.5491 251.555 30.5813L245.345 30.6995C246.88 27.4627 250.354 25.1963 254.388 25.1963Z" fill="url(#paint1_linear_419_389)"/>
<path d="M5.06042 56.4718C4.15436 56.4718 3.3889 56.1739 2.77185 55.5743C2.15089 54.9747 1.84236 54.2394 1.84236 53.3645L1.76816 7.96178C1.76816 7.08691 2.07669 6.34779 2.69765 5.7482C3.31861 5.15239 4.08016 4.85071 4.99012 4.85071C5.90008 4.85071 6.65773 5.15239 7.27869 5.7482C7.89965 6.34779 8.20818 7.08313 8.20818 7.958L8.27848 50.2497H33.9722C34.8782 50.2497 35.6554 50.5513 36.2998 51.1472C36.9442 51.7467 37.2644 52.4821 37.2644 53.357C37.2644 54.2318 36.9442 54.9709 36.2998 55.5668C35.6554 56.1663 34.8782 56.4643 33.9722 56.4643H5.06042V56.4718Z" fill="white"/>
<path d="M69.6817 52.3226C67.9633 53.797 66.0419 54.9133 63.9212 55.675C61.7967 56.4367 59.5901 56.8138 57.3016 56.8138C54.724 56.8138 52.2909 56.3425 50.0024 55.3959C47.7138 54.4532 45.7103 53.1484 43.9919 51.493C42.2736 49.8337 40.9262 47.8992 39.9498 45.6894C38.9696 43.4796 38.4814 41.1303 38.4814 38.6414C38.4814 36.1526 38.9696 33.7354 39.9498 31.5218C40.9262 29.312 42.2775 27.3888 43.9919 25.7522C45.7103 24.1193 47.7138 22.8146 50.0024 21.8492C52.2909 20.8801 54.724 20.3974 57.3016 20.3974C59.8791 20.3974 62.3825 20.8801 64.6711 21.8492C66.9597 22.8183 68.9514 24.1193 70.6464 25.7522C72.3374 27.3888 73.677 29.312 74.6533 31.5218C75.6297 33.7316 76.1218 36.1073 76.1218 38.6414V53.7065C76.1218 54.5814 75.8093 55.3205 75.1923 55.9163C74.5752 56.5122 73.8097 56.8138 72.9037 56.8138C71.9976 56.8138 71.2322 56.5159 70.6151 55.9163C69.9942 55.3167 69.6856 54.5814 69.6856 53.7065V52.3226H69.6817ZM57.3016 26.6874C55.5832 26.6874 53.9742 27.0004 52.4706 27.6188C50.967 28.241 49.6548 29.0933 48.5339 30.1756C47.4131 31.2578 46.5305 32.5249 45.8861 33.9767C45.2417 35.4285 44.9214 36.9822 44.9214 38.6414C44.9214 40.3007 45.2417 41.8543 45.8861 43.3061C46.5305 44.758 47.4131 46.025 48.5339 47.1073C49.6548 48.1896 50.967 49.0418 52.4706 49.664C53.9742 50.2862 55.5832 50.5955 57.3016 50.5955C59.02 50.5955 60.629 50.2825 62.1326 49.664C63.6362 49.0418 64.9484 48.1896 66.0692 47.1073C67.1901 46.025 68.0727 44.758 68.7171 43.3061C69.3615 41.8543 69.6817 40.3007 69.6817 38.6414C69.6817 36.9822 69.3615 35.4285 68.7171 33.9767C68.0727 32.5249 67.1901 31.2578 66.0692 30.1756C64.9484 29.0933 63.6362 28.241 62.1326 27.6188C60.629 26.9966 59.02 26.6874 57.3016 26.6874Z" fill="white"/>
<path d="M136.451 21.8799C136.451 23.5844 136.166 25.221 135.592 26.786C135.018 28.3509 134.221 29.7801 133.194 31.0698C132.167 32.3595 130.952 33.4795 129.543 34.4222C128.133 35.3688 126.598 36.0702 124.926 36.5302L134.874 53.2546C135.303 54.0389 135.412 54.8346 135.198 55.6378C134.983 56.4448 134.471 57.0783 133.659 57.5384C133.182 57.8137 132.655 57.9532 132.085 57.9532C131.515 57.9532 130.976 57.8137 130.476 57.5384C129.976 57.2631 129.582 56.8709 129.297 56.3619L117.776 37.1524H100.744V54.8421C100.744 55.717 100.432 56.4561 99.8146 57.0519C99.1976 57.6478 98.4321 57.9494 97.5261 57.9494C96.62 57.9494 95.8546 57.6515 95.2375 57.0519C94.6165 56.4524 94.308 55.717 94.308 54.8421V9.43943C94.308 8.56456 94.6165 7.82921 95.2375 7.22963C95.8585 6.63004 96.62 6.33213 97.5261 6.33213H99.7443C101.178 6.33213 103.001 6.32082 105.22 6.29819C107.438 6.27556 109.883 6.26425 112.554 6.26425H120.427C122.669 6.26425 124.77 6.66775 126.727 7.47474C128.683 8.28173 130.378 9.39794 131.808 10.8272C133.241 12.2564 134.374 13.9156 135.209 15.8011C136.045 17.6904 136.463 19.7191 136.463 21.8837L136.451 21.8799ZM130.011 21.8083C130.011 20.5186 129.761 19.3081 129.261 18.1806C128.762 17.0531 128.082 16.0613 127.223 15.209C126.364 14.3568 125.348 13.6893 124.181 13.2066C123.009 12.724 121.759 12.4826 120.424 12.4826H100.744V30.9341H120.424C121.712 30.9341 122.939 30.6927 124.11 30.21C125.278 29.7274 126.293 29.0712 127.153 28.2416C128.012 27.412 128.703 26.4466 129.226 25.3379C129.75 24.233 130.015 23.0565 130.015 21.812L130.011 21.8083Z" fill="white"/>
<path d="M168.654 53.4566C166.935 54.9311 165.014 56.0473 162.893 56.809C160.769 57.5708 158.562 57.9479 156.274 57.9479C153.696 57.9479 151.263 57.4765 148.974 56.53C146.686 55.5872 144.678 54.2825 142.964 52.627C141.249 50.9715 139.898 49.0332 138.922 46.8234C137.946 44.6136 137.453 42.2643 137.453 39.7755C137.453 37.2866 137.942 34.8694 138.922 32.6558C139.898 30.446 141.249 28.5228 142.964 26.8862C144.682 25.2534 146.686 23.9486 148.974 22.9832C151.263 22.0141 153.696 21.5314 156.274 21.5314C158.851 21.5314 161.355 22.0141 163.643 22.9832C165.932 23.9524 167.923 25.2534 169.618 26.8862C171.309 28.5228 172.649 30.446 173.625 32.6558C174.602 34.8656 175.094 37.2414 175.094 39.7755V54.8406C175.094 55.7154 174.781 56.4546 174.164 57.0504C173.547 57.6462 172.782 57.9479 171.876 57.9479C170.97 57.9479 170.204 57.65 169.587 57.0504C168.966 56.4508 168.658 55.7154 168.658 54.8406V53.4566H168.654ZM156.274 27.8214C154.555 27.8214 152.946 28.1344 151.443 28.7529C149.939 29.3751 148.627 30.2273 147.506 31.3096C146.385 32.3919 145.502 33.6589 144.858 35.1107C144.214 36.5626 143.893 38.1162 143.893 39.7755C143.893 41.4347 144.214 42.9883 144.858 44.4402C145.502 45.892 146.385 47.1591 147.506 48.2413C148.627 49.3236 149.939 50.1759 151.443 50.7981C152.946 51.4203 154.555 51.7295 156.274 51.7295C157.992 51.7295 159.601 51.4165 161.105 50.7981C162.608 50.1759 163.92 49.3236 165.041 48.2413C166.162 47.1591 167.045 45.892 167.689 44.4402C168.334 42.9883 168.654 41.4347 168.654 39.7755C168.654 38.1162 168.334 36.5626 167.689 35.1107C167.045 33.6589 166.162 32.3919 165.041 31.3096C163.92 30.2273 162.608 29.3751 161.105 28.7529C159.601 28.1306 157.992 27.8214 156.274 27.8214Z" fill="white"/>
<path d="M210.234 9.09216C210.234 8.21729 210.543 7.48195 211.164 6.88236C211.785 6.28277 212.546 5.98486 213.452 5.98486C214.359 5.98486 215.136 6.28654 215.78 6.88236C216.424 7.48195 216.745 8.21729 216.745 9.09216V39.7729C216.745 42.2618 216.245 44.6111 215.241 46.8209C214.237 49.0307 212.89 50.969 211.199 52.6245C209.504 54.2837 207.512 55.5847 205.224 56.5275C202.935 57.474 200.475 57.9454 197.854 57.9454C195.234 57.9454 192.844 57.474 190.555 56.5275C188.266 55.5847 186.259 54.2799 184.545 52.6245C182.83 50.969 181.479 49.0307 180.502 46.8209C179.526 44.6111 179.034 42.2618 179.034 39.7729C179.034 37.2841 179.522 34.8669 180.502 32.6533C181.479 30.4435 182.83 28.5203 184.545 26.8837C186.263 25.2509 188.266 23.9574 190.555 23.0147C192.844 22.0719 195.277 21.5968 197.854 21.5968C200.143 21.5515 202.349 21.906 204.474 22.6677C206.595 23.4295 208.516 24.5457 210.234 26.0201V9.09216ZM197.854 51.727C199.573 51.727 201.182 51.414 202.685 50.7955C204.189 50.1733 205.501 49.3211 206.622 48.2388C207.743 47.1565 208.625 45.8895 209.27 44.4377C209.914 42.9858 210.234 41.4322 210.234 39.7729C210.234 38.1137 209.914 36.5601 209.27 35.1082C208.625 33.6564 207.743 32.3893 206.622 31.3071C205.501 30.2248 204.189 29.3726 202.685 28.7503C201.182 28.1281 199.573 27.8189 197.854 27.8189C196.136 27.8189 194.527 28.1319 193.023 28.7503C191.52 29.3726 190.207 30.2248 189.087 31.3071C187.966 32.3893 187.083 33.6564 186.439 35.1082C185.794 36.5601 185.474 38.1137 185.474 39.7729C185.474 41.4322 185.794 42.9858 186.439 44.4377C187.083 45.8895 187.966 47.1565 189.087 48.2388C190.207 49.3211 191.52 50.1733 193.023 50.7955C194.527 51.4178 196.136 51.727 197.854 51.727Z" fill="white"/>
<path d="M229.34 54.8403C229.34 55.7152 229.027 56.4543 228.41 57.0501C227.789 57.6497 227.028 57.9476 226.122 57.9476C225.216 57.9476 224.45 57.6497 223.833 57.0501C223.212 56.4505 222.904 55.7152 222.904 54.8403V24.7101C222.904 23.8352 223.212 23.0999 223.833 22.5003C224.454 21.9007 225.216 21.6028 226.122 21.6028C227.028 21.6028 227.793 21.9045 228.41 22.5003C229.031 23.0999 229.34 23.8352 229.34 24.7101V54.8403Z" fill="white"/>
</g>
<defs>
<linearGradient id="paint0_linear_419_389" x1="254.485" y1="52.973" x2="254.485" y2="76.0033" gradientUnits="userSpaceOnUse">
<stop stop-color="#764BA2"/>
<stop offset="1" stop-color="#764BA2"/>
</linearGradient>
<linearGradient id="paint1_linear_419_389" x1="254.484" y1="20.5417" x2="254.484" y2="59.5687" gradientUnits="userSpaceOnUse">
<stop stop-color="#667EEA"/>
<stop offset="1" stop-color="#764BA2"/>
</linearGradient>
<clipPath id="clip0_419_389">
<rect width="274.06" height="75.9999" fill="white"/>
</clipPath>
</defs>
</svg>
